<svg width="41" height="42" viewBox="0 0 41 42" fill="none" xmlns="http://www.w3.org/2000/svg">
<path d="M3.82148 41.2949C3.82148 41.2949 0.445656 41.2838 0.456695 37.908C0.467734 34.5322 3.87668 24.4157 20.7558 24.4709C37.6349 24.5261 40.9776 34.6647 40.9666 38.0405C40.9556 41.4163 37.5797 41.4053 37.5797 41.4053L3.82148 41.2949ZM20.7668 21.0951C23.4528 21.1039 26.0323 20.0453 27.9378 18.1523C29.8432 16.2592 30.9187 13.6867 30.9274 11.0008C30.9362 8.31478 29.8776 5.73533 27.9846 3.82985C26.0915 1.92437 23.5191 0.848944 20.8331 0.84016C18.1471 0.831377 15.5677 1.88995 13.6622 3.78301C11.7567 5.67607 10.6813 8.24855 10.6725 10.9345C10.6637 13.6205 11.7223 16.1999 13.6153 18.1054C15.5084 20.0109 18.0809 21.0863 20.7668 21.0951Z" fill="#F86BB7"/>
</svg>
