<svg width="36" height="36" viewBox="0 0 36 36" fill="none" xmlns="http://www.w3.org/2000/svg">
<path d="M34.9436 22.1375L30.5394 29.7083C29.6761 31.212 28.0794 31.9951 26.4681 31.8847L22.9646 31.8733L22.9531 35.3768L18.5995 27.4795L23.0047 19.6109L22.9932 23.1144L27.9332 23.1306L24.0663 16.3736L31.6658 12.019L34.8011 17.4948C35.7076 18.8466 35.8244 20.6513 34.9436 22.1375ZM12.9246 0.413399L21.6835 0.442041C23.4002 0.447655 24.8859 1.45103 25.5995 2.88983L27.3413 5.94363L30.3775 4.20178L25.7276 11.9119L16.7055 12.0401L19.7418 10.2982L17.2858 5.99834L13.3924 12.73L5.80401 8.32571L8.97507 2.8705C9.69805 1.41888 11.1904 0.407728 12.9246 0.413399ZM5.54161 29.6441L1.18699 22.0446C0.333493 20.5528 0.46196 18.7664 1.35977 17.4205L3.12145 14.3956L0.0966203 12.634L9.10025 12.8035L13.7171 20.5615L10.6923 18.7999L8.20831 23.0661L15.9862 23.0915L15.9575 31.8504L9.65116 31.8297C8.83027 31.8865 8.00994 31.7117 7.28345 31.3253C6.55696 30.9389 5.95347 30.3564 5.54161 29.6441Z" fill="#F86BB7"/>
</svg>
