<svg width="36" height="35" viewBox="0 0 36 35" fill="none" xmlns="http://www.w3.org/2000/svg">
<path d="M0.0611852 24.864C0.0632921 24.2197 0.328821 23.6027 0.79936 23.1486C1.2699 22.6946 1.9069 22.4407 2.57024 22.4429L7.57245 22.4592C8.23579 22.4614 8.87112 22.7194 9.33868 23.1765C9.80624 23.6337 10.0677 24.2524 10.0656 24.8967L10.0418 32.1847C10.0397 32.829 9.77415 33.446 9.30361 33.9001C8.83307 34.3541 8.19607 34.608 7.53273 34.6058L2.53052 34.5895C1.86718 34.5873 1.23185 34.3293 0.764294 33.8722C0.296735 33.415 0.0352464 32.7963 0.0373533 32.152L0.0611852 24.864ZM12.5985 15.1876C12.6006 14.5433 12.8661 13.9263 13.3367 13.4722C13.8072 13.0182 14.4442 12.7643 15.1076 12.7665L20.1098 12.7828C20.7731 12.785 21.4084 13.043 21.876 13.5002C22.3436 13.9573 22.605 14.576 22.6029 15.2203L22.5473 32.2256C22.5452 32.8699 22.2797 33.4869 21.8092 33.941C21.3386 34.395 20.7016 34.6489 20.0383 34.6467L15.0361 34.6304C14.3727 34.6282 13.7374 34.3702 13.2698 33.9131C12.8023 33.4559 12.5408 32.8372 12.5429 32.1929L12.5985 15.1876ZM25.1438 3.08191C25.1459 2.43761 25.4114 1.82057 25.8819 1.36652C26.3525 0.912463 26.9895 0.658598 27.6528 0.660767L32.655 0.677124C33.3184 0.679293 33.9537 0.937319 34.4213 1.39444C34.8888 1.85156 35.1503 2.47033 35.1482 3.11462L35.0529 32.2665C35.0508 32.9108 34.7852 33.5278 34.3147 33.9819C33.8442 34.4359 33.2072 34.6898 32.5438 34.6876L27.5416 34.6713C26.8783 34.6691 26.2429 34.4111 25.7754 33.954C25.3078 33.4968 25.0463 32.8781 25.0484 32.2338L25.1438 3.08191Z" fill="#FF84C7"/>
</svg>
